# xmcd CD database file
#
# Track frame offsets:
#	150
#	16506
#	34247
#	49197
#
# Disc length: 872 seconds
#
# Revision: 4
# Processed by: cddbd v1.5.2PL0 Copyright (c) Steve Scherf et al.
# Submitted via: CDex 1.70beta3
#
DISCID=25036604
DTITLE=YUI - HELLO ～Paradise Kiss～
DYEAR=2011
DGENRE=J-POP
TTITLE0=HELLO ～Paradise Kiss～
TTITLE1=YOU
TTITLE2=It's My Life ～YUI Acoustic Version～
TTITLE3=HELLO ～Instrumental～
EXTD=YEAR: 2011
EXTT0=
EXTT1=
EXTT2=
EXTT3=
PLAYORDER=
